<svg width="1800" height="520" viewBox="0 0 1800 520" fill="none" xmlns="http://www.w3.org/2000/svg">
  <defs>
    <linearGradient id="sky" x1="0" y1="0" x2="1" y2="1">
      <stop offset="0" stop-color="#102135"/>
      <stop offset="0.35" stop-color="#5C4050"/>
      <stop offset="0.68" stop-color="#C87361"/>
      <stop offset="1" stop-color="#F1B176"/>
    </linearGradient>
    <linearGradient id="water" x1="0" y1="0" x2="0" y2="1">
      <stop stop-color="#8B5B58" stop-opacity="0.54"/>
      <stop offset="1" stop-color="#102437" stop-opacity="0.95"/>
    </linearGradient>
    <radialGradient id="sun" cx="0" cy="0" r="1" gradientTransform="translate(1400 142) rotate(90) scale(180)">
      <stop stop-color="#FFE0A1" stop-opacity="0.95"/>
      <stop offset="0.45" stop-color="#F9A66F" stop-opacity="0.38"/>
      <stop offset="1" stop-color="#F0A26E" stop-opacity="0"/>
    </radialGradient>
    <linearGradient id="vignette" x1="0" y1="0" x2="1" y2="0">
      <stop stop-color="#07131F" stop-opacity="0.88"/>
      <stop offset="0.45" stop-color="#07131F" stop-opacity="0.2"/>
      <stop offset="1" stop-color="#07131F" stop-opacity="0.42"/>
    </linearGradient>
    <filter id="blur"><feGaussianBlur stdDeviation="10"/></filter>
    <filter id="smallBlur"><feGaussianBlur stdDeviation="2.5"/></filter>
  </defs>

  <rect width="1800" height="520" fill="url(#sky)"/>
  <rect width="1800" height="520" fill="url(#sun)"/>
  <path d="M0 332 C290 300 500 345 790 318 C1100 288 1380 306 1800 274 V520 H0 Z" fill="url(#water)"/>

  <!-- distant city -->
  <g opacity="0.72">
    <rect x="640" y="220" width="30" height="106" rx="2" fill="#172636"/>
    <rect x="678" y="184" width="44" height="142" rx="2" fill="#182737"/>
    <rect x="731" y="205" width="28" height="121" rx="2" fill="#132434"/>
    <rect x="766" y="151" width="59" height="175" rx="3" fill="#172839"/>
    <rect x="836" y="198" width="41" height="128" rx="2" fill="#15283A"/>
    <rect x="889" y="165" width="37" height="161" rx="2" fill="#182D40"/>
    <rect x="940" y="214" width="55" height="112" rx="2" fill="#13273A"/>
    <rect x="1008" y="192" width="31" height="134" rx="2" fill="#18293A"/>
    <rect x="1048" y="136" width="66" height="190" rx="2" fill="#132537"/>
    <rect x="1125" y="203" width="43" height="123" rx="2" fill="#17283A"/>
    <rect x="1180" y="170" width="53" height="156" rx="2" fill="#132638"/>
    <rect x="1245" y="208" width="29" height="118" rx="2" fill="#1C2A38"/>
    <rect x="1282" y="149" width="74" height="177" rx="2" fill="#182A3A"/>
    <rect x="1370" y="192" width="38" height="134" rx="2" fill="#152637"/>
    <rect x="1418" y="174" width="47" height="152" rx="2" fill="#1A2B39"/>
  </g>

  <!-- city lights -->
  <g fill="#FFD18F" opacity="0.8" filter="url(#smallBlur)">
    <circle cx="695" cy="238" r="2"/><circle cx="787" cy="205" r="2"/><circle cx="860" cy="242" r="2"/>
    <circle cx="914" cy="211" r="2"/><circle cx="1065" cy="202" r="2"/><circle cx="1090" cy="174" r="2"/>
    <circle cx="1210" cy="222" r="2"/><circle cx="1315" cy="207" r="2"/><circle cx="1440" cy="212" r="2"/>
    <circle cx="580" cy="300" r="2"/><circle cx="875" cy="300" r="2"/><circle cx="1136" cy="292" r="2"/>
  </g>

  <!-- string lights -->
  <path d="M1170 64 C1350 112 1530 98 1745 42" stroke="#2F2730" stroke-width="4" opacity="0.65"/>
  <g fill="#FFD89B" filter="url(#smallBlur)">
    <circle cx="1214" cy="75" r="6"/><circle cx="1294" cy="91" r="6"/><circle cx="1382" cy="94" r="6"/><circle cx="1475" cy="87" r="6"/><circle cx="1565" cy="72" r="6"/><circle cx="1653" cy="53" r="6"/>
  </g>

  <!-- balcony rail -->
  <rect x="0" y="420" width="1800" height="100" fill="#07121C" opacity="0.88"/>
  <rect x="930" y="399" width="870" height="14" rx="7" fill="#0B1721"/>
  <rect x="1000" y="399" width="12" height="121" fill="#0B1721"/>
  <rect x="1190" y="399" width="12" height="121" fill="#0B1721"/>
  <rect x="1380" y="399" width="12" height="121" fill="#0B1721"/>
  <rect x="1570" y="399" width="12" height="121" fill="#0B1721"/>

  <!-- silhouette + chair -->
  <g fill="#07111A" opacity="0.96">
    <ellipse cx="1458" cy="235" rx="42" ry="52"/>
    <path d="M1417 280 C1428 251 1485 248 1506 281 L1540 393 L1368 393 Z"/>
    <path d="M1382 338 C1349 362 1328 393 1315 433 H1363 C1372 399 1391 373 1424 352 Z"/>
    <rect x="1330" y="383" width="210" height="20" rx="10"/>
  </g>

  <!-- plant silhouettes -->
  <g stroke="#102116" stroke-width="10" stroke-linecap="round" opacity="0.88">
    <path d="M85 516 C100 420 118 330 171 223"/>
    <path d="M166 261 C128 246 105 211 88 173"/>
    <path d="M159 273 C196 239 227 208 248 162"/>
    <path d="M128 343 C90 319 61 283 38 251"/>
    <path d="M177 340 C223 315 251 283 278 245"/>
  </g>
  <g fill="#173021" opacity="0.92">
    <ellipse cx="87" cy="170" rx="26" ry="13" transform="rotate(34 87 170)"/>
    <ellipse cx="247" cy="159" rx="31" ry="14" transform="rotate(-35 247 159)"/>
    <ellipse cx="39" cy="250" rx="26" ry="12" transform="rotate(35 39 250)"/>
    <ellipse cx="278" cy="243" rx="31" ry="13" transform="rotate(-33 278 243)"/>
  </g>

  <!-- soft light pools -->
  <circle cx="1120" cy="345" r="125" fill="#E28A67" opacity="0.08" filter="url(#blur)"/>
  <circle cx="1510" cy="188" r="160" fill="#FFD99C" opacity="0.08" filter="url(#blur)"/>

  <rect width="1800" height="520" fill="url(#vignette)"/>
</svg>
